<svg xmlns="http://www.w3.org/2000/svg" viewBox="0 0 25.04 23.88"><defs><style>.cls-1{fill:#fff;}</style></defs><title>Asset 3</title><g id="Layer_2" data-name="Layer 2"><g id="Layer_1-2" data-name="Layer 1"><path class="cls-1" d="M20,23.86l-7.51-4a.13.13,0,0,0-.12,0L4.82,23.76a.13.13,0,0,1-.19-.14l1.5-8.38a.13.13,0,0,0,0-.11L0,9.14a.13.13,0,0,1,.07-.22L8.55,7.75a.13.13,0,0,0,.1-.07L12.46.07a.13.13,0,0,1,.23,0l3.72,7.66a.13.13,0,0,0,.1.07l8.42,1.28a.13.13,0,0,1,.07.22l-6.14,5.9a.13.13,0,0,0,0,.11l1.38,8.4A.13.13,0,0,1,20,23.86Z"/></g></g></svg>