<?xml version="1.0" encoding="utf-8"?>
<!-- Generator: Adobe Illustrator 19.1.0, SVG Export Plug-In . SVG Version: 6.00 Build 0)  -->
<svg version="1.1" xmlns="http://www.w3.org/2000/svg" xmlns:xlink="http://www.w3.org/1999/xlink" x="0px" y="0px"
	 viewBox="0 0 43.7 43.5" style="enable-background:new 0 0 43.7 43.5;" xml:space="preserve">
<style type="text/css">
	.st0{fill:none;stroke:#000000;stroke-width:1.5;stroke-linecap:round;stroke-linejoin:round;stroke-miterlimit:10;}
</style>
<g id="Garden_1_">
</g>
<g id="note">
</g>
<g id="Hall">
</g>
<g id="Treehouse">
</g>
<g id="Tiny_House_x0A_">
</g>
<g id="Laundry">
</g>
<g id="Kitchen">
</g>
<g id="Gym">
</g>
<g id="Garden">
</g>
<g id="Garage">
</g>
<g id="Closet">
</g>
<g id="Staircase">
</g>
<g id="Pool">
</g>
<g id="Playground">
</g>
<g id="Nursery">
</g>
<g id="Entry">
</g>
<g id="Porch">
	<g>
		<g>
			<path d="M39,33.5H19c-0.4,0-0.8-0.3-0.8-0.8v-12c0-0.4,0.3-0.8,0.8-0.8h20c0.4,0,0.8,0.3,0.8,0.8s-0.3,0.8-0.8,0.8H19.7V32H39
				c0.4,0,0.8,0.3,0.8,0.8S39.4,33.5,39,33.5z"/>
		</g>
		<g>
			<path d="M39,9.5H15c-0.3,0-0.6-0.2-0.7-0.5c-0.1-0.3,0-0.6,0.2-0.8l7-6C21.6,2.1,21.8,2,22,2h17c0.4,0,0.8,0.3,0.8,0.8
				S39.4,3.5,39,3.5H22.3L17,8h22c0.4,0,0.8,0.3,0.8,0.8S39.4,9.5,39,9.5z"/>
		</g>
		<g>
			<path d="M37,33.5c-0.4,0-0.8-0.3-0.8-0.8V21.2c0-0.4,0.3-0.8,0.8-0.8s0.8,0.3,0.8,0.8v11.5C37.7,33.2,37.4,33.5,37,33.5z"/>
		</g>
		<g>
			<path d="M31,33.5c-0.4,0-0.8-0.3-0.8-0.8V21.2c0-0.4,0.3-0.8,0.8-0.8s0.8,0.3,0.8,0.8v11.5C31.7,33.2,31.4,33.5,31,33.5z"/>
		</g>
		<g>
			<path d="M25,33.5c-0.4,0-0.8-0.3-0.8-0.8V21.2c0-0.4,0.3-0.8,0.8-0.8s0.8,0.3,0.8,0.8v11.5C25.7,33.2,25.4,33.5,25,33.5z"/>
		</g>
		<g>
			<path d="M19,22.3c-0.4,0-0.8-0.3-0.8-0.8V10c0-0.4,0.3-0.8,0.8-0.8s0.8,0.3,0.8,0.8v11.6C19.7,22,19.4,22.3,19,22.3z"/>
		</g>
		<g>
			<path d="M43,43.5c-0.4,0-0.8-0.3-0.8-0.8v-42C42.2,0.3,42.6,0,43,0s0.8,0.3,0.8,0.8v42C43.7,43.2,43.4,43.5,43,43.5z"/>
		</g>
		<g>
			<path d="M40,37.5H14.5c-0.4,0-0.8-0.3-0.8-0.8s0.3-0.8,0.8-0.8H40c0.4,0,0.8,0.3,0.8,0.8S40.4,37.5,40,37.5z"/>
		</g>
		<g>
			<path d="M7,43.5H3c-0.4,0-0.8-0.3-0.8-0.8S2.6,42,3,42h3.2v-2.2C6.2,39.3,6.6,39,7,39h3.2v-2.2c0-0.4,0.3-0.8,0.8-0.8h3.2v-3.2
				c0-0.4,0.3-0.8,0.8-0.8h4c0.4,0,0.8,0.3,0.8,0.8s-0.3,0.8-0.8,0.8h-3.2v3.2c0,0.4-0.3,0.8-0.8,0.8h-3.2v2.2
				c0,0.4-0.3,0.8-0.8,0.8H7.7v2.2C7.7,43.2,7.4,43.5,7,43.5z"/>
		</g>
		<g>
			<path d="M0.8,36.5c-0.2,0-0.4-0.1-0.6-0.3c-0.3-0.3-0.2-0.8,0.1-1.1l17.8-14.5c0.3-0.3,0.8-0.2,1.1,0.1c0.3,0.3,0.2,0.8-0.1,1.1
				L1.2,36.3C1.1,36.4,0.9,36.5,0.8,36.5z"/>
		</g>
		<g>
			<path d="M33,17.5c-0.4,0-0.8-0.3-0.8-0.8v-4c0-0.4,0.3-0.8,0.8-0.8h6c0.4,0,0.8,0.3,0.8,0.8s-0.3,0.8-0.8,0.8h-5.2v3.2
				C33.7,17.2,33.4,17.5,33,17.5z"/>
		</g>
		<g>
			<path d="M7,36.5c-0.4,0-0.8-0.3-0.8-0.8v-5C6.2,30.3,6.6,30,7,30s0.8,0.3,0.8,0.8v5C7.7,36.2,7.4,36.5,7,36.5z"/>
		</g>
		<g>
			<path d="M15,29.5c-0.4,0-0.8-0.3-0.8-0.8v-4.6c0-0.4,0.3-0.8,0.8-0.8s0.8,0.3,0.8,0.8v4.6C15.7,29.2,15.4,29.5,15,29.5z"/>
		</g>
	</g>
</g>
<g id="Cabin">
</g>
<g id="Basement">
</g>
<g id="Barn">
</g>
<g id="Layer_21">
</g>
</svg>
