<?xml version="1.0" encoding="utf-8"?>
<!-- Generator: Adobe Illustrator 19.1.0, SVG Export Plug-In . SVG Version: 6.00 Build 0)  -->
<svg version="1.1" xmlns="http://www.w3.org/2000/svg" xmlns:xlink="http://www.w3.org/1999/xlink" x="0px" y="0px"
	 viewBox="0 0 42 42" style="enable-background:new 0 0 42 42;" xml:space="preserve">
<style type="text/css">
	.st0{fill:none;stroke:#000000;stroke-width:1.5;stroke-linecap:round;stroke-linejoin:round;stroke-miterlimit:10;}
</style>
<g id="Garden_1_">
	<path id="computer_x5F_desk" d="M41.3,19.6H0.7c-0.4,0-0.7,0.3-0.7,0.7C0,20.7,0.3,21,0.7,21h0.7v6.3v7V42h16.8v-7.7v-7v-2.1h18.2
		V42h4.2V21h0.7c0.4,0,0.7-0.3,0.7-0.7C42,19.9,41.7,19.6,41.3,19.6z M2.8,28h14v5.6h-14V28z M16.8,21v5.6h-14V21H16.8z M2.8,40.6
		V35h14v5.6H2.8z M18.2,23.8V21h18.2v2.8H18.2z M39.2,40.6h-1.4V21h1.4V40.6z M9.1,23.8h1.4c0.4,0,0.7-0.3,0.7-0.7
		c0-0.4-0.3-0.7-0.7-0.7H9.1c-0.4,0-0.7,0.3-0.7,0.7C8.4,23.5,8.7,23.8,9.1,23.8z M10.5,29.4H9.1c-0.4,0-0.7,0.3-0.7,0.7
		c0,0.4,0.3,0.7,0.7,0.7h1.4c0.4,0,0.7-0.3,0.7-0.7C11.2,29.7,10.9,29.4,10.5,29.4z M10.5,36.4H9.1c-0.4,0-0.7,0.3-0.7,0.7
		c0,0.4,0.3,0.7,0.7,0.7h1.4c0.4,0,0.7-0.3,0.7-0.7C11.2,36.7,10.9,36.4,10.5,36.4z M11.2,14h7v2.8h-0.7c-0.4,0-0.7,0.3-0.7,0.7
		s0.3,0.7,0.7,0.7h8.4c0.4,0,0.7-0.3,0.7-0.7s-0.3-0.7-0.7-0.7h-0.7V14h7V0h-21V14z M23.8,16.8h-4.2V14h4.2V16.8z M12.6,1.4h18.2
		v11.2H12.6V1.4z"/>
</g>
<g id="note">
</g>
<g id="Hall">
</g>
<g id="Treehouse">
</g>
<g id="Tiny_House_x0A_">
</g>
<g id="Laundry">
</g>
<g id="Kitchen">
</g>
<g id="Gym">
</g>
<g id="Garden">
</g>
<g id="Garage">
</g>
<g id="Closet">
</g>
<g id="Staircase">
</g>
<g id="Pool">
</g>
<g id="Playground">
</g>
<g id="Nursery">
</g>
<g id="Entry">
</g>
<g id="Porch">
</g>
<g id="Cabin">
</g>
<g id="Basement">
</g>
<g id="Barn">
</g>
<g id="Layer_21">
</g>
</svg>
