<?xml version="1.0" encoding="utf-8"?>
<!-- Generator: Adobe Illustrator 19.1.0, SVG Export Plug-In . SVG Version: 6.00 Build 0)  -->
<svg version="1.1" xmlns="http://www.w3.org/2000/svg" xmlns:xlink="http://www.w3.org/1999/xlink" x="0px" y="0px"
	 viewBox="0 0 40.6 43.5" style="enable-background:new 0 0 40.6 43.5;" xml:space="preserve">
<style type="text/css">
	.st0{fill:none;stroke:#000000;stroke-width:1.5;stroke-linecap:round;stroke-linejoin:round;stroke-miterlimit:10;}
</style>
<g id="Garden_1_">
</g>
<g id="note">
</g>
<g id="Hall">
</g>
<g id="Treehouse">
</g>
<g id="Tiny_House_x0A_">
</g>
<g id="Laundry">
</g>
<g id="Kitchen">
</g>
<g id="Gym">
</g>
<g id="Garden">
</g>
<g id="Garage">
</g>
<g id="Closet">
</g>
<g id="Staircase">
</g>
<g id="Pool">
</g>
<g id="Playground">
</g>
<g id="Nursery">
</g>
<g id="Entry">
</g>
<g id="Porch">
</g>
<g id="Cabin">
</g>
<g id="Basement">
	<g>
		<g>
			<path d="M7.3,23.5c-0.4,0-0.8-0.3-0.8-0.8v-9c0-0.4,0.3-0.8,0.8-0.8S8,13.3,8,13.8v9C8,23.2,7.7,23.5,7.3,23.5z"/>
		</g>
		<g>
			<path d="M33.3,23.5c-0.4,0-0.8-0.3-0.8-0.8v-9c0-0.4,0.3-0.8,0.8-0.8s0.8,0.3,0.8,0.8v9C34.1,23.2,33.8,23.5,33.3,23.5z"/>
		</g>
		<g>
			<path d="M33.3,43.5h-26c-0.4,0-0.8-0.3-0.8-0.8v-12c0-0.4,0.3-0.8,0.8-0.8s0.8,0.3,0.8,0.8V42h24.5V30.8c0-0.4,0.3-0.8,0.8-0.8
				s0.8,0.3,0.8,0.8v12C34.1,43.2,33.7,43.5,33.3,43.5z"/>
		</g>
		<g>
			<path d="M35.3,15.7c-0.2,0-0.3-0.1-0.5-0.2L20.3,3.7L5.8,15.5c-0.3,0.3-0.8,0.2-1.1-0.1c-0.3-0.3-0.2-0.8,0.1-1.1l15-12.2
				c0.3-0.2,0.7-0.2,0.9,0l15,12.2c0.3,0.3,0.4,0.7,0.1,1.1C35.7,15.6,35.5,15.7,35.3,15.7z"/>
		</g>
		<g>
			<path d="M39.9,27.5H0.7c-0.4,0-0.8-0.3-0.8-0.8S0.3,26,0.7,26h39.1c0.4,0,0.8,0.3,0.8,0.8S40.3,27.5,39.9,27.5z"/>
		</g>
		<g>
			<path d="M17.3,43.5c-0.4,0-0.8-0.3-0.8-0.8v-4c0-0.4,0.3-0.8,0.8-0.8h3.2v-3.2c0-0.4,0.3-0.8,0.8-0.8h3.3v-3.2
				c0-0.4,0.3-0.8,0.8-0.8h2.9v-3.2c0-0.4,0.3-0.8,0.8-0.8s0.8,0.3,0.8,0.8v4c0,0.4-0.3,0.8-0.8,0.8h-2.9v3.2c0,0.4-0.3,0.8-0.8,0.8
				h-3.3v3.2c0,0.4-0.3,0.8-0.8,0.8h-3.2v3.2C18.1,43.2,17.7,43.5,17.3,43.5z"/>
		</g>
		<g>
			<path d="M33.3,9.9c-0.4,0-0.8-0.3-0.8-0.8V1.5h-3.5v2.2c0,0.4-0.3,0.8-0.8,0.8s-0.8-0.3-0.8-0.8v-3c0-0.4,0.3-0.8,0.8-0.8h5
				c0.4,0,0.8,0.3,0.8,0.8v8.4C34.1,9.6,33.7,9.9,33.3,9.9z"/>
		</g>
	</g>
</g>
<g id="Barn">
</g>
<g id="Layer_21">
</g>
</svg>
