<?xml version="1.0" encoding="utf-8"?>
<!-- Generator: Adobe Illustrator 19.1.0, SVG Export Plug-In . SVG Version: 6.00 Build 0)  -->
<svg version="1.1" xmlns="http://www.w3.org/2000/svg" xmlns:xlink="http://www.w3.org/1999/xlink" x="0px" y="0px"
	 viewBox="0 0 42 40.6" style="enable-background:new 0 0 42 40.6;" xml:space="preserve">
<style type="text/css">
	.st0{fill:none;stroke:#000000;stroke-width:1.5;stroke-linecap:round;stroke-linejoin:round;stroke-miterlimit:10;}
</style>
<g id="Garden_1_">
</g>
<g id="note">
</g>
<g id="Hall">
</g>
<g id="Treehouse">
</g>
<g id="Tiny_House_x0A_">
</g>
<g id="Laundry">
</g>
<g id="Kitchen">
</g>
<g id="Gym">
</g>
<g id="Garden">
</g>
<g id="Garage">
</g>
<g id="Closet">
</g>
<g id="Staircase">
</g>
<g id="Pool">
</g>
<g id="Playground">
</g>
<g id="Nursery">
</g>
<g id="Entry">
</g>
<g id="Porch">
</g>
<g id="Cabin">
</g>
<g id="Basement">
</g>
<g id="Barn">
</g>
<g id="Layer_21">
	<g id="_x36_4px-Line">
		<path id="Shape" d="M18.1,23.2c-0.4,0-0.7,0.3-0.7,0.7v2.9c0,0.4,0.3,0.7,0.7,0.7c0.4,0,0.7-0.3,0.7-0.7v-2.9
			C18.8,23.5,18.5,23.2,18.1,23.2L18.1,23.2z"/>
		<path id="Shape_1_" d="M23.9,27.5c0.4,0,0.7-0.3,0.7-0.7v-2.9c0-0.4-0.3-0.7-0.7-0.7c-0.4,0-0.7,0.3-0.7,0.7v2.9
			C23.2,27.2,23.5,27.5,23.9,27.5L23.9,27.5z"/>
		<path id="Shape_2_" d="M41.3,10.1H26.1V8c0-0.4-0.3-0.7-0.7-0.7h-1.4c-0.4,0-0.7,0.3-0.7,0.7v2.2h-1.4V3.6c0-1.2,0.9-2.2,2.2-2.2
			s2.2,0.9,2.2,2.2c0,0.4,0.3,0.7,0.7,0.7c0.4,0,0.7-0.3,0.7-0.7c0-2-1.6-3.6-3.6-3.6s-3.6,1.6-3.6,3.6v6.5h-1.4V8
			c0-0.4-0.3-0.7-0.7-0.7h-1.4c-0.4,0-0.7,0.3-0.7,0.7v2.2H0.7c-0.4,0-0.7,0.3-0.7,0.7v4.3v20.3v4.3c0,0.4,0.3,0.7,0.7,0.7
			s0.7-0.3,0.7-0.7v-3.6h39.1v3.6c0,0.4,0.3,0.7,0.7,0.7c0.4,0,0.7-0.3,0.7-0.7v-4.3V15.2v-4.3C42,10.4,41.7,10.1,41.3,10.1
			L41.3,10.1z M16.7,11.6h1.4h5.8h1.4h15.2v2.9H1.4v-2.9H16.7L16.7,11.6z M40.6,15.9v18.8H21.7V15.9H40.6L40.6,15.9z M1.4,15.9h18.8
			v18.8H1.4V15.9L1.4,15.9z"/>
	</g>
</g>
</svg>
