<?xml version="1.0" encoding="utf-8"?>
<!-- Generator: Adobe Illustrator 19.1.0, SVG Export Plug-In . SVG Version: 6.00 Build 0)  -->
<svg version="1.1" xmlns="http://www.w3.org/2000/svg" xmlns:xlink="http://www.w3.org/1999/xlink" x="0px" y="0px"
	 viewBox="0 0 43.5 43.5" style="enable-background:new 0 0 43.5 43.5;" xml:space="preserve">
<style type="text/css">
	.st0{fill:none;stroke:#000000;stroke-width:1.5;stroke-linecap:round;stroke-linejoin:round;stroke-miterlimit:10;}
</style>
<g id="Garden_1_">
</g>
<g id="note">
</g>
<g id="Hall">
</g>
<g id="Treehouse">
</g>
<g id="Tiny_House_x0A_">
</g>
<g id="Laundry">
</g>
<g id="Kitchen">
</g>
<g id="Gym">
</g>
<g id="Garden">
	<g>
		<g>
			<g>
				<path d="M10.8,14.5C8.1,14.5,6,12.4,6,9.8S8.1,5,10.8,5s4.8,2.1,4.8,4.8S13.4,14.5,10.8,14.5z M10.8,6.5C9,6.5,7.5,8,7.5,9.8
					S9,13,10.8,13S14,11.5,14,9.8S12.5,6.5,10.8,6.5z"/>
			</g>
			<g>
				<path d="M16.8,13.5h-3.4c-0.4,0-0.8-0.3-0.8-0.8S13,12,13.4,12h3.4C18,12,19,11,19,9.8c0-0.6-0.2-1.2-0.7-1.6s-1-0.7-1.6-0.7
					h-3.4c-0.4,0-0.8-0.3-0.8-0.8S13,6,13.4,6h3.4c1,0,1.9,0.4,2.7,1.1s1.1,1.7,1.1,2.7C20.5,11.8,18.8,13.5,16.8,13.5z"/>
			</g>
			<g>
				<path d="M8.1,13.5H4.8c-1,0-1.9-0.4-2.7-1.1S1,10.8,1,9.8C1,7.7,2.7,6,4.8,6h3.4c0.4,0,0.8,0.3,0.8,0.8S8.5,7.5,8.1,7.5H4.8
					c-1.2,0-2.2,1-2.2,2.2c0,0.6,0.2,1.2,0.7,1.6s1,0.7,1.6,0.7h3.4c0.4,0,0.8,0.3,0.8,0.8S8.5,13.5,8.1,13.5z"/>
			</g>
			<g>
				<path d="M10.8,19.5c-2.1,0-3.8-1.7-3.8-3.8v-3.4c0-0.4,0.3-0.8,0.8-0.8s0.8,0.3,0.8,0.8v3.4c0,1.2,1,2.2,2.2,2.2
					c0.6,0,1.2-0.2,1.6-0.7s0.7-1,0.7-1.6v-3.4c0-0.4,0.3-0.8,0.8-0.8s0.8,0.3,0.8,0.8v3.4c0,1-0.4,1.9-1.1,2.7S11.8,19.5,10.8,19.5
					z"/>
			</g>
			<g>
				<path d="M13.8,7.9c-0.4,0-0.8-0.3-0.8-0.8V3.8c0-1.2-1-2.2-2.2-2.2c-0.6,0-1.2,0.2-1.6,0.7s-0.7,1-0.7,1.6v3.4
					c0,0.4-0.3,0.8-0.8,0.8S7,7.5,7,7.1V3.8c0-1,0.4-1.9,1.1-2.7S9.8,0,10.8,0c2.1,0,3.8,1.7,3.8,3.8v3.4
					C14.5,7.5,14.2,7.9,13.8,7.9z"/>
			</g>
		</g>
		<g>
			<g>
				<path d="M32.8,14.5c-2.6,0-4.8-2.1-4.8-4.8S30.1,5,32.8,5s4.8,2.1,4.8,4.8S35.4,14.5,32.8,14.5z M32.8,6.5
					c-1.8,0-3.2,1.5-3.2,3.2S31,13,32.8,13S36,11.5,36,9.8S34.5,6.5,32.8,6.5z"/>
			</g>
			<g>
				<path d="M32.8,19.5c-2.1,0-3.8-1.7-3.8-3.8v-3.4c0-0.4,0.3-0.8,0.8-0.8s0.8,0.3,0.8,0.8v3.4c0,1.2,1,2.2,2.2,2.2
					c0.6,0,1.2-0.2,1.6-0.7s0.7-1,0.7-1.6v-3.4c0-0.4,0.3-0.8,0.8-0.8s0.8,0.3,0.8,0.8v3.4c0,1-0.4,1.9-1.1,2.7S33.8,19.5,32.8,19.5
					z"/>
			</g>
			<g>
				<path d="M35.8,7.9c-0.4,0-0.8-0.3-0.8-0.8V3.8c0-1.2-1-2.2-2.2-2.2c-0.6,0-1.2,0.2-1.6,0.7s-0.7,1-0.7,1.6v3.4
					c0,0.4-0.3,0.8-0.8,0.8S29,7.5,29,7.1V3.8c0-1,0.4-1.9,1.1-2.7S31.8,0,32.8,0c2.1,0,3.8,1.7,3.8,3.8v3.4
					C36.5,7.5,36.2,7.9,35.8,7.9z"/>
			</g>
			<g>
				<path d="M30.1,13.5h-3.4c-1,0-1.9-0.4-2.7-1.1S23,10.8,23,9.8C23,7.7,24.7,6,26.8,6h3.4c0.4,0,0.8,0.3,0.8,0.8s-0.3,0.8-0.8,0.8
					h-3.4c-1.2,0-2.2,1-2.2,2.2c0,0.6,0.2,1.2,0.7,1.6s1,0.7,1.6,0.7h3.4c0.4,0,0.8,0.3,0.8,0.8S30.5,13.5,30.1,13.5z"/>
			</g>
			<g>
				<path d="M38.8,13.5h-3.4c-0.4,0-0.8-0.3-0.8-0.8S35,12,35.4,12h3.4C40,12,41,11,41,9.8c0-0.6-0.2-1.2-0.7-1.6s-1-0.7-1.6-0.7
					h-3.4c-0.4,0-0.8-0.3-0.8-0.8S35,6,35.4,6h3.4c1,0,1.9,0.4,2.7,1.1s1.1,1.7,1.1,2.7C42.5,11.8,40.8,13.5,38.8,13.5z"/>
			</g>
		</g>
		<g>
			<path d="M10.8,39.5c-0.4,0-0.8-0.3-0.8-0.8v-20c0-0.4,0.3-0.8,0.8-0.8s0.8,0.3,0.8,0.8v20C11.5,39.2,11.2,39.5,10.8,39.5z"/>
		</g>
		<g>
			<path d="M32.8,39.5c-0.4,0-0.8-0.3-0.8-0.8v-20c0-0.4,0.3-0.8,0.8-0.8s0.8,0.3,0.8,0.8v20C33.5,39.2,33.2,39.5,32.8,39.5z"/>
		</g>
		<g>
			<path d="M42.8,43.5h-42c-0.4,0-0.8-0.3-0.8-0.8v-9C0,33.3,0.3,33,0.8,33h6c0.4,0,0.8,0.3,0.8,0.8s-0.3,0.8-0.8,0.8H1.5V42H42
				v-7.5h-5.2c-0.4,0-0.8-0.3-0.8-0.8s0.3-0.8,0.8-0.8h6c0.4,0,0.8,0.3,0.8,0.8v9C43.5,43.2,43.2,43.5,42.8,43.5z"/>
		</g>
		<g>
			<path d="M28.8,34.5h-14c-0.4,0-0.8-0.3-0.8-0.8s0.3-0.8,0.8-0.8h14c0.4,0,0.8,0.3,0.8,0.8S29.2,34.5,28.8,34.5z"/>
		</g>
		<g>
			<path d="M33.3,29.5c-0.1,0-0.2,0-0.3,0c-0.2,0-0.4-0.1-0.5-0.2c-0.1-0.1-0.2-0.3-0.2-0.5c0.2-5.1,4.4-9,9.6-8.9
				c0.2,0,0.4,0.1,0.5,0.2c0.1,0.1,0.2,0.3,0.2,0.5C42.3,25.6,38.2,29.5,33.3,29.5z M40.9,21.3c-3.6,0.2-6.6,3-7.1,6.7
				C37.4,27.7,40.4,24.9,40.9,21.3z"/>
		</g>
		<g>
			<path d="M11.1,29.5c-0.1,0-0.2,0-0.3,0c-0.2,0-0.4-0.1-0.5-0.2c-0.1-0.1-0.2-0.3-0.2-0.5c0.2-5.1,4.4-9,9.6-8.9
				c0.2,0,0.4,0.1,0.5,0.2c0.1,0.1,0.2,0.3,0.2,0.5C20.1,25.6,16,29.5,11.1,29.5z M18.7,21.3c-3.6,0.2-6.6,3-7.1,6.7
				C15.2,27.7,18.2,24.9,18.7,21.3z"/>
		</g>
	</g>
</g>
<g id="Garage">
</g>
<g id="Closet">
</g>
<g id="Staircase">
</g>
<g id="Pool">
</g>
<g id="Playground">
</g>
<g id="Nursery">
</g>
<g id="Entry">
</g>
<g id="Porch">
</g>
<g id="Cabin">
</g>
<g id="Basement">
</g>
<g id="Barn">
</g>
<g id="Layer_21">
</g>
</svg>
