<?xml version="1.0" encoding="utf-8"?>
<!-- Generator: Adobe Illustrator 19.1.0, SVG Export Plug-In . SVG Version: 6.00 Build 0)  -->
<svg version="1.1" xmlns="http://www.w3.org/2000/svg" xmlns:xlink="http://www.w3.org/1999/xlink" x="0px" y="0px"
	 viewBox="0 0 100 129.9" style="enable-background:new 0 0 100 129.9;" xml:space="preserve">
<style type="text/css">
	.st0{fill:none;stroke:#666666;stroke-width:2;stroke-linecap:round;stroke-linejoin:round;stroke-miterlimit:10;}
</style>
<g id="Garden_1_">
</g>
<g id="note">
</g>
<g id="Hall">
</g>
<g id="Treehouse">
</g>
<g id="Tiny_House_x0A_">
</g>
<g id="Laundry">
	<g>
		<g>
			<path d="M97.8,123.9H2.2c-1.2,0-2.2-1-2.2-2.2V2.2C0,1,1,0,2.2,0h95.5C99,0,100,1,100,2.2v119.4C100,122.9,99,123.9,97.8,123.9z
				 M4.5,119.4h91V4.5h-91V119.4z"/>
		</g>
		<g>
			<path d="M14.2,129.9c-1.2,0-2.2-1-2.2-2.2v-4.8c0-1.2,1-2.2,2.2-2.2s2.2,1,2.2,2.2v4.8C16.4,128.8,15.4,129.9,14.2,129.9z"/>
		</g>
		<g>
			<path d="M85.8,129.9c-1.2,0-2.2-1-2.2-2.2v-4.8c0-1.2,1-2.2,2.2-2.2s2.2,1,2.2,2.2v4.8C88.1,128.8,87.1,129.9,85.8,129.9z"/>
		</g>
		<g>
			<path d="M50,111.9c-21,0-38.1-17.1-38.1-38.1S29,35.8,50,35.8s38.1,17.1,38.1,38.1S71,111.9,50,111.9z M50,40.3
				c-18.5,0-33.6,15.1-33.6,33.6s15.1,33.6,33.6,33.6s33.6-15.1,33.6-33.6S68.5,40.3,50,40.3z"/>
		</g>
		<g>
			<path d="M50,100c-14.4,0-26.1-11.7-26.1-26.1S35.6,47.8,50,47.8c6.7,0,13.1,2.6,18,7.2c0.4,0.4,0.7,1,0.7,1.6
				c0,0.6-0.3,1.2-0.7,1.6c-4.4,4.1-6.8,9.7-6.8,15.7c0,6,2.4,11.5,6.8,15.7c0.4,0.4,0.7,1,0.7,1.6c0,0.6-0.3,1.2-0.7,1.6
				C63.1,97.4,56.7,100,50,100z M50,52.2c-11.9,0-21.6,9.7-21.6,21.6S38.1,95.5,50,95.5c4.8,0,9.4-1.6,13.2-4.5
				c-4.2-4.8-6.4-10.8-6.4-17.1s2.3-12.4,6.4-17.1C59.4,53.8,54.8,52.2,50,52.2z"/>
		</g>
		<g>
			<path d="M85.8,28.4H14.2c-1.2,0-2.2-1-2.2-2.2V14.2c0-1.2,1-2.2,2.2-2.2h71.6c1.2,0,2.2,1,2.2,2.2v11.9
				C88.1,27.4,87.1,28.4,85.8,28.4z M16.4,23.9h67.2v-7.5H16.4V23.9z"/>
		</g>
	</g>
</g>
<g id="Kitchen">
</g>
<g id="Gym">
</g>
<g id="Garden">
</g>
<g id="Garage">
</g>
<g id="Closet">
</g>
<g id="Staircase">
</g>
<g id="Pool">
</g>
<g id="Playground">
</g>
<g id="Nursery">
</g>
<g id="Entry">
</g>
<g id="Porch">
</g>
<g id="Cabin">
</g>
<g id="Basement">
</g>
<g id="Barn">
</g>
</svg>
