<?xml version="1.0" encoding="utf-8"?>
<!-- Generator: Adobe Illustrator 19.1.0, SVG Export Plug-In . SVG Version: 6.00 Build 0)  -->
<svg version="1.1" xmlns="http://www.w3.org/2000/svg" xmlns:xlink="http://www.w3.org/1999/xlink" x="0px" y="0px"
	 viewBox="0 0 42 34.8" style="enable-background:new 0 0 42 34.8;" xml:space="preserve">
<style type="text/css">
	.st0{fill:none;stroke:#000000;stroke-width:1.5;stroke-linecap:round;stroke-linejoin:round;stroke-miterlimit:10;}
</style>
<g id="Garden_1_">
	<path id="double_x5F_bed" d="M39.1,16.5V2.9c0-1.6-1.3-2.9-2.9-2.9H5.8C4.2,0,2.9,1.3,2.9,2.9v13.7C1.1,17.1,0,17.9,0,18.8V34
		c0,0.4,0.3,0.7,0.7,0.7h1.4c0.3,0,0.6-0.2,0.7-0.5l1.3-3.8h33.7l1.3,3.8c0.1,0.3,0.4,0.5,0.7,0.5h1.4c0.4,0,0.7-0.3,0.7-0.7V18.8
		C42,17.9,40.9,17.1,39.1,16.5z M4.3,2.9c0-0.8,0.6-1.4,1.4-1.4h30.4c0.8,0,1.4,0.6,1.4,1.4v13.2c-0.5-0.1-0.9-0.2-1.4-0.3v-2
		c0-1.7-1.3-3.6-7.2-3.6s-7.2,2-7.2,3.6v0.7c-0.3,0-0.5,0-0.7,0s-0.5,0-0.7,0v-0.7c0-1.7-1.3-3.6-7.2-3.6s-7.2,2-7.2,3.6v2
		c-0.5,0.1-1,0.2-1.4,0.3V2.9z M34.8,15.5c-3.9-0.6-8.5-0.9-11.6-1v-0.8c0-1.4,2.1-2.2,5.8-2.2s5.8,0.8,5.8,2.2V15.5z M7.2,15.5
		v-1.8c0-1.4,2.1-2.2,5.8-2.2s5.8,0.8,5.8,2.2v0.8C15.8,14.6,11.2,14.9,7.2,15.5z M19.6,15.9L19.6,15.9L19.6,15.9c0.5,0,1,0,1.4,0
		s1,0,1.4,0c0,0,0,0,0,0l0,0c9.8,0.2,17.6,1.8,18.1,2.9v4.3H1.4l0-4.3C1.9,17.8,9.8,16.1,19.6,15.9z M40.3,33.3l-1.3-3.8
		C39,29.2,38.7,29,38.4,29H3.6c-0.3,0-0.6,0.2-0.7,0.5l-1.3,3.8H1.4l0-8.7h39.1v8.7H40.3z"/>
</g>
<g id="note">
</g>
<g id="Hall">
</g>
<g id="Treehouse">
</g>
<g id="Tiny_House_x0A_">
</g>
<g id="Laundry">
</g>
<g id="Kitchen">
</g>
<g id="Gym">
</g>
<g id="Garden">
</g>
<g id="Garage">
</g>
<g id="Closet">
</g>
<g id="Staircase">
</g>
<g id="Pool">
</g>
<g id="Playground">
</g>
<g id="Nursery">
</g>
<g id="Entry">
</g>
<g id="Porch">
</g>
<g id="Cabin">
</g>
<g id="Basement">
</g>
<g id="Barn">
</g>
<g id="Layer_21">
</g>
</svg>
