<?xml version="1.0" encoding="utf-8"?>
<!-- Generator: Adobe Illustrator 19.1.0, SVG Export Plug-In . SVG Version: 6.00 Build 0)  -->
<svg version="1.1" xmlns="http://www.w3.org/2000/svg" xmlns:xlink="http://www.w3.org/1999/xlink" x="0px" y="0px"
	 viewBox="0 0 100 104.8" style="enable-background:new 0 0 100 104.8;" xml:space="preserve">
<style type="text/css">
	.st0{fill:none;stroke:#666666;stroke-width:2;stroke-linecap:round;stroke-linejoin:round;stroke-miterlimit:10;}
</style>
<g id="Garden_1_">
</g>
<g id="note">
</g>
<g id="Hall">
</g>
<g id="Treehouse">
</g>
<g id="Tiny_House_x0A_">
</g>
<g id="Laundry">
</g>
<g id="Kitchen">
</g>
<g id="Gym">
</g>
<g id="Garden">
</g>
<g id="Garage">
</g>
<g id="Closet">
	<g>
		<g>
			<path d="M98.2,100H1.8c-1,0-1.8-0.8-1.8-1.8V1.8C0,0.8,0.8,0,1.8,0h96.4c1,0,1.8,0.8,1.8,1.8v96.4C100,99.2,99.2,100,98.2,100z
				 M3.6,96.4h92.8V3.6H3.6V96.4z"/>
		</g>
		<g>
			<path d="M88.6,90.4H11.4c-1,0-1.8-0.8-1.8-1.8V11.4c0-1,0.8-1.8,1.8-1.8h77.1c1,0,1.8,0.8,1.8,1.8v77.1
				C90.4,89.6,89.6,90.4,88.6,90.4z M13.3,86.7h73.5V13.3H13.3V86.7z"/>
		</g>
		<g>
			<path d="M45.2,90.4c-1,0-1.8-0.8-1.8-1.8V11.4c0-1,0.8-1.8,1.8-1.8c1,0,1.8,0.8,1.8,1.8v77.1C47,89.6,46.2,90.4,45.2,90.4z"/>
		</g>
		<g>
			<path d="M88.6,35h-42c-1,0-1.8-0.8-1.8-1.8s0.8-1.8,1.8-1.8h42c1,0,1.8,0.8,1.8,1.8S89.6,35,88.6,35z"/>
		</g>
		<g>
			<path d="M88.6,22.9h-42c-1,0-1.8-0.8-1.8-1.8s0.8-1.8,1.8-1.8h42c1,0,1.8,0.8,1.8,1.8S89.6,22.9,88.6,22.9z"/>
		</g>
		<g>
			<path d="M45.2,30.1H11.4c-1,0-1.8-0.8-1.8-1.8c0-1,0.8-1.8,1.8-1.8h33.7c1,0,1.8,0.8,1.8,1.8C47,29.3,46.2,30.1,45.2,30.1z"/>
		</g>
		<g>
			<path d="M45.2,47H11.4c-1,0-1.8-0.8-1.8-1.8s0.8-1.8,1.8-1.8h33.7c1,0,1.8,0.8,1.8,1.8S46.2,47,45.2,47z"/>
		</g>
		<g>
			<path d="M45.2,61.4H11.4c-1,0-1.8-0.8-1.8-1.8c0-1,0.8-1.8,1.8-1.8h33.7c1,0,1.8,0.8,1.8,1.8C47,60.6,46.2,61.4,45.2,61.4z"/>
		</g>
		<g>
			<path d="M45.2,75.9H11.4c-1,0-1.8-0.8-1.8-1.8s0.8-1.8,1.8-1.8h33.7c1,0,1.8,0.8,1.8,1.8S46.2,75.9,45.2,75.9z"/>
		</g>
		<g>
			<path d="M9,104.8c-1,0-1.8-0.8-1.8-1.8v-3.5c0-1,0.8-1.8,1.8-1.8s1.8,0.8,1.8,1.8v3.5C10.8,104,10,104.8,9,104.8z"/>
		</g>
		<g>
			<path d="M91,104.8c-1,0-1.8-0.8-1.8-1.8v-3.5c0-1,0.8-1.8,1.8-1.8c1,0,1.8,0.8,1.8,1.8v3.5C92.8,104,92,104.8,91,104.8z"/>
		</g>
		<g>
			<path d="M75.9,52H57.8c-2.6,0-4.8-2.1-4.8-4.8c0-2,1.2-3.7,3-4.4l10.2-4.1c0.4-0.2,0.9-0.2,1.3,0l10.2,4.1c1.8,0.7,3,2.5,3,4.4
				C80.7,49.8,78.6,52,75.9,52z M66.9,42.3l-9.5,3.8c-0.4,0.2-0.7,0.6-0.7,1.1c0,0.6,0.5,1.2,1.2,1.2h18.2c0.6,0,1.2-0.5,1.2-1.2
				c0-0.5-0.3-0.9-0.7-1.1l0,0L66.9,42.3z"/>
		</g>
		<g>
			<path d="M66.9,42.2c-1,0-1.8-0.8-1.8-1.8v-7.2c0-1,0.8-1.8,1.8-1.8s1.8,0.8,1.8,1.8v7.2C68.7,41.4,67.9,42.2,66.9,42.2z"/>
		</g>
	</g>
</g>
<g id="Staircase">
</g>
<g id="Pool">
</g>
<g id="Playground">
</g>
<g id="Nursery">
</g>
<g id="Entry">
</g>
<g id="Porch">
</g>
<g id="Cabin">
</g>
<g id="Basement">
</g>
<g id="Barn">
</g>
</svg>
