<?xml version="1.0" encoding="utf-8"?>
<!-- Generator: Adobe Illustrator 19.1.0, SVG Export Plug-In . SVG Version: 6.00 Build 0)  -->
<svg version="1.1" xmlns="http://www.w3.org/2000/svg" xmlns:xlink="http://www.w3.org/1999/xlink" x="0px" y="0px"
	 viewBox="0 0 42 27.4" style="enable-background:new 0 0 42 27.4;" xml:space="preserve">
<style type="text/css">
	.st0{fill:none;stroke:#000000;stroke-width:1.5;stroke-linecap:round;stroke-linejoin:round;stroke-miterlimit:10;}
</style>
<g id="Garden_1_">
	<g id="hou-table">
		<g>
			<path d="M5.8,27.4H3.1c-0.3,0-0.5-0.2-0.5-0.5V5.8c0-0.3,0.2-0.5,0.5-0.5s0.5,0.2,0.5,0.5v20.7h1.7V5.8c0-0.3,0.2-0.5,0.5-0.5
				s0.5,0.2,0.5,0.5V27C6.3,27.2,6.1,27.4,5.8,27.4z"/>
		</g>
		<g>
			<path d="M38.9,6.3H3.1c-0.3,0-0.5-0.2-0.5-0.5V0.5C2.6,0.2,2.9,0,3.1,0s0.5,0.2,0.5,0.5v4.8h34.7V0.5c0-0.3,0.2-0.5,0.5-0.5
				s0.5,0.2,0.5,0.5v5.3C39.4,6.1,39.1,6.3,38.9,6.3z"/>
		</g>
		<g>
			<path d="M38.9,27.4h-2.6c-0.3,0-0.5-0.2-0.5-0.5V5.8c0-0.3,0.2-0.5,0.5-0.5c0.3,0,0.5,0.2,0.5,0.5v20.7h1.7V5.8
				c0-0.3,0.2-0.5,0.5-0.5s0.5,0.2,0.5,0.5V27C39.4,27.2,39.1,27.4,38.9,27.4z"/>
		</g>
		<g>
			<path d="M41.5,1h-41C0.2,1,0,0.8,0,0.5S0.2,0,0.5,0h41C41.8,0,42,0.2,42,0.5S41.8,1,41.5,1z"/>
		</g>
	</g>
</g>
<g id="note">
</g>
<g id="Hall">
</g>
<g id="Treehouse">
</g>
<g id="Tiny_House_x0A_">
</g>
<g id="Laundry">
</g>
<g id="Kitchen">
</g>
<g id="Gym">
</g>
<g id="Garden">
</g>
<g id="Garage">
</g>
<g id="Closet">
</g>
<g id="Staircase">
</g>
<g id="Pool">
</g>
<g id="Playground">
</g>
<g id="Nursery">
</g>
<g id="Entry">
</g>
<g id="Porch">
</g>
<g id="Cabin">
</g>
<g id="Basement">
</g>
<g id="Barn">
</g>
<g id="Layer_21">
</g>
</svg>
