<?xml version="1.0" encoding="utf-8"?>
<!-- Generator: Adobe Illustrator 19.1.0, SVG Export Plug-In . SVG Version: 6.00 Build 0)  -->
<svg version="1.1" xmlns="http://www.w3.org/2000/svg" xmlns:xlink="http://www.w3.org/1999/xlink" x="0px" y="0px"
	 viewBox="0 0 39.1 43.5" style="enable-background:new 0 0 39.1 43.5;" xml:space="preserve">
<style type="text/css">
	.st0{fill:none;stroke:#000000;stroke-width:1.5;stroke-linecap:round;stroke-linejoin:round;stroke-miterlimit:10;}
</style>
<g id="Garden_1_">
</g>
<g id="note">
</g>
<g id="Hall">
</g>
<g id="Treehouse">
</g>
<g id="Tiny_House_x0A_">
</g>
<g id="Laundry">
</g>
<g id="Kitchen">
	<g>
		<g>
			<path d="M36.8,41.5h-30c-0.4,0-0.8-0.3-0.8-0.8v-29C6,11.3,6.3,11,6.8,11h30c0.4,0,0.8,0.3,0.8,0.8v29
				C37.5,41.2,37.2,41.5,36.8,41.5z M7.5,40H36V12.5H7.5V40z"/>
		</g>
		<g>
			<path d="M17.8,12.5h-9c-0.3,0-0.6-0.2-0.7-0.6l-1-4C7,7.7,7,7.5,7.2,7.3C7.3,7.1,7.5,7,7.8,7h11.2c0.2,0,0.5,0.1,0.6,0.3
				s0.2,0.4,0.1,0.7l-1.2,4C18.4,12.3,18.1,12.5,17.8,12.5z M9.3,11h7.9l0.7-2.5H8.7L9.3,11z"/>
		</g>
		<g>
			<path d="M35.8,12.5h-12c-0.4,0-0.8-0.3-0.8-0.8v-9C23,2.3,23.3,2,23.8,2h12c0.4,0,0.8,0.3,0.8,0.8v9
				C36.5,12.2,36.2,12.5,35.8,12.5z M24.5,11H35V3.5H24.5V11z"/>
		</g>
		<g>
			<path d="M32.8,37.5h-22c-0.4,0-0.8-0.3-0.8-0.8v-14c0-0.4,0.3-0.8,0.8-0.8h22c0.4,0,0.8,0.3,0.8,0.8v14
				C33.5,37.2,33.2,37.5,32.8,37.5z M11.5,36H32V23.5H11.5V36z"/>
		</g>
		<g>
			<path d="M28.8,28.5h-14c-0.4,0-0.8-0.3-0.8-0.8s0.3-0.8,0.8-0.8h14c0.4,0,0.8,0.3,0.8,0.8S29.2,28.5,28.8,28.5z"/>
		</g>
		<g>
			<path d="M28.8,33.5h-14c-0.4,0-0.8-0.3-0.8-0.8s0.3-0.8,0.8-0.8h14c0.4,0,0.8,0.3,0.8,0.8S29.2,33.5,28.8,33.5z"/>
		</g>
		<g>
			<path d="M7.8,8.5h-7C0.3,8.5,0,8.2,0,7.8S0.3,7,0.8,7h7c0.4,0,0.8,0.3,0.8,0.8S8.2,8.5,7.8,8.5z"/>
		</g>
		<g>
			<path d="M23.8,5.5h-3c-0.4,0-0.8-0.3-0.8-0.8S20.3,4,20.8,4h3c0.4,0,0.8,0.3,0.8,0.8S24.2,5.5,23.8,5.5z"/>
		</g>
		<g>
			<path d="M38.4,5.5H36c-0.4,0-0.8-0.3-0.8-0.8S35.6,4,36,4h2.3c0.4,0,0.8,0.3,0.8,0.8S38.8,5.5,38.4,5.5z"/>
		</g>
		<g>
			<path d="M13.2,19.5c-1.2,0-2.2-1-2.2-2.2s1-2.2,2.2-2.2s2.2,1,2.2,2.2S14.5,19.5,13.2,19.5z M13.2,16.5c-0.4,0-0.8,0.3-0.8,0.8
				s0.3,0.8,0.8,0.8s0.8-0.3,0.8-0.8S13.7,16.5,13.2,16.5z"/>
		</g>
		<g>
			<path d="M19.2,19.5c-1.2,0-2.2-1-2.2-2.2s1-2.2,2.2-2.2s2.2,1,2.2,2.2S20.5,19.5,19.2,19.5z M19.2,16.5c-0.4,0-0.8,0.3-0.8,0.8
				s0.3,0.8,0.8,0.8s0.8-0.3,0.8-0.8S19.7,16.5,19.2,16.5z"/>
		</g>
		<g>
			<path d="M25.2,19.5c-1.2,0-2.2-1-2.2-2.2s1-2.2,2.2-2.2s2.2,1,2.2,2.2S26.5,19.5,25.2,19.5z M25.2,16.5c-0.4,0-0.8,0.3-0.8,0.8
				s0.3,0.8,0.8,0.8s0.8-0.3,0.8-0.8S25.7,16.5,25.2,16.5z"/>
		</g>
		<g>
			<path d="M31.2,19.5c-1.2,0-2.2-1-2.2-2.2s1-2.2,2.2-2.2s2.2,1,2.2,2.2S32.5,19.5,31.2,19.5z M31.2,16.5c-0.4,0-0.8,0.3-0.8,0.8
				s0.3,0.8,0.8,0.8s0.8-0.3,0.8-0.8S31.7,16.5,31.2,16.5z"/>
		</g>
		<g>
			<path d="M29.8,2.7C29.3,2.7,29,2.4,29,2V0.8C29,0.3,29.3,0,29.8,0s0.8,0.3,0.8,0.8V2C30.5,2.4,30.2,2.7,29.8,2.7z"/>
		</g>
		<g>
			<path d="M10.8,43.5c-0.4,0-0.8-0.3-0.8-0.8v-1.4c0-0.4,0.3-0.8,0.8-0.8s0.8,0.3,0.8,0.8v1.4C11.5,43.2,11.2,43.5,10.8,43.5z"/>
		</g>
		<g>
			<path d="M33.8,43.5c-0.4,0-0.8-0.3-0.8-0.8v-1.4c0-0.4,0.3-0.8,0.8-0.8s0.8,0.3,0.8,0.8v1.4C34.5,43.2,34.2,43.5,33.8,43.5z"/>
		</g>
	</g>
</g>
<g id="Gym">
</g>
<g id="Garden">
</g>
<g id="Garage">
</g>
<g id="Closet">
</g>
<g id="Staircase">
</g>
<g id="Pool">
</g>
<g id="Playground">
</g>
<g id="Nursery">
</g>
<g id="Entry">
</g>
<g id="Porch">
</g>
<g id="Cabin">
</g>
<g id="Basement">
</g>
<g id="Barn">
</g>
<g id="Layer_21">
</g>
</svg>
