<?xml version="1.0" encoding="utf-8"?>
<!-- Generator: Adobe Illustrator 19.1.0, SVG Export Plug-In . SVG Version: 6.00 Build 0)  -->
<svg version="1.1" xmlns="http://www.w3.org/2000/svg" xmlns:xlink="http://www.w3.org/1999/xlink" x="0px" y="0px"
	 viewBox="0 0 42 26.1" style="enable-background:new 0 0 42 26.1;" xml:space="preserve">
<style type="text/css">
	.st0{fill:none;stroke:#000000;stroke-width:1.5;stroke-linecap:round;stroke-linejoin:round;stroke-miterlimit:10;}
</style>
<g id="Garden_1_">
	<g id="hou-sofa">
		<g>
			<path d="M36.2,18.2H5.8c-0.3,0-0.5-0.2-0.5-0.5V2.5C5.3,1.1,6.4,0,7.8,0h26.5c1.4,0,2.5,1.1,2.5,2.5v15.2
				C36.7,18,36.5,18.2,36.2,18.2z M6.3,17.2h29.4V2.5C35.7,1.7,35,1,34.2,1H7.8C7,1,6.3,1.7,6.3,2.5V17.2z"/>
		</g>
		<g>
			<path d="M36.2,14.9c-0.3,0-0.5-0.2-0.5-0.5c0-0.8-0.7-1.5-1.5-1.5H7.8c-0.8,0-1.5,0.7-1.5,1.5c0,0.3-0.2,0.5-0.5,0.5
				s-0.5-0.2-0.5-0.5c0-1.4,1.1-2.5,2.5-2.5h26.5c1.4,0,2.5,1.1,2.5,2.5C36.7,14.7,36.5,14.9,36.2,14.9z"/>
		</g>
		<g>
			<path d="M39.5,22.2h-37C1.1,22.2,0,21,0,19.7V7.8c0-1.4,1.1-2.5,2.5-2.5h1.3c1.4,0,2.5,1.1,2.5,2.5c0,0.3-0.2,0.5-0.5,0.5
				S5.3,8,5.3,7.8c0-0.8-0.7-1.5-1.5-1.5H2.5C1.7,6.3,1,7,1,7.8v11.9c0,0.8,0.7,1.5,1.5,1.5h37c0.8,0,1.5-0.7,1.5-1.5V7.8
				c0-0.8-0.7-1.5-1.5-1.5h-1.3c-0.8,0-1.5,0.7-1.5,1.5c0,0.3-0.2,0.5-0.5,0.5c-0.3,0-0.5-0.2-0.5-0.5c0-1.4,1.1-2.5,2.5-2.5h1.3
				c1.4,0,2.5,1.1,2.5,2.5v11.9C42,21,40.9,22.2,39.5,22.2z"/>
		</g>
		<g>
			<path d="M4.5,26.1H3.1c-0.3,0-0.5-0.2-0.5-0.5v-4c0-0.3,0.2-0.5,0.5-0.5s0.5,0.2,0.5,0.5v3.5h0.6l2.5-3.7
				c0.2-0.2,0.5-0.3,0.7-0.1c0.2,0.2,0.3,0.5,0.1,0.7l-2.6,4C4.8,26,4.6,26.1,4.5,26.1z"/>
		</g>
		<g>
			<path d="M38.9,26.1h-1.3c-0.2,0-0.3-0.1-0.4-0.2l-2.6-4c-0.2-0.2-0.1-0.5,0.1-0.7c0.2-0.2,0.5-0.1,0.7,0.1l2.5,3.7h0.6v-3.5
				c0-0.3,0.2-0.5,0.5-0.5s0.5,0.2,0.5,0.5v4C39.4,25.9,39.1,26.1,38.9,26.1z"/>
		</g>
	</g>
</g>
<g id="note">
</g>
<g id="Hall">
</g>
<g id="Treehouse">
</g>
<g id="Tiny_House_x0A_">
</g>
<g id="Laundry">
</g>
<g id="Kitchen">
</g>
<g id="Gym">
</g>
<g id="Garden">
</g>
<g id="Garage">
</g>
<g id="Closet">
</g>
<g id="Staircase">
</g>
<g id="Pool">
</g>
<g id="Playground">
</g>
<g id="Nursery">
</g>
<g id="Entry">
</g>
<g id="Porch">
</g>
<g id="Cabin">
</g>
<g id="Basement">
</g>
<g id="Barn">
</g>
<g id="Layer_21">
</g>
</svg>
